inDegrees=no
num_controls=7
num_derivatives=13
num_iterations=104
num_multipliers=7
num_parameters=0
num_slacks=7
num_states=26
objective=0.485548
objective_accelerations=0.025707
objective_balance=0.001496
objective_effort=0.056584
objective_height=0.396143
objective_ligament=0.005618
solver_duration=1139.065431
status=Solve_Succeeded
success=true
DataType=double
version=3
OpenSimVersion=4.5
endheader
time	/jointset/ground_pelvis/pelvis_tilt/value	/jointset/ground_pelvis/pelvis_tx/value	/jointset/ground_pelvis/pelvis_ty/value	/jointset/hip_r/hip_flexion_r/value	/jointset/hip_r/hip_adduction_r/value	/jointset/hip_r/hip_rotation_r/value	/jointset/back/lumbar_extension/value	/jointset/patellofemoral_r/patellar_flexion_r/value	/jointset/knee_r/knee_flexion_r/value	/jointset/knee_r/knee_adduction_r/value	/jointset/knee_r/knee_rotation_r/value	/jointset/ankle_r/ankle_angle_r/value	/jointset/subtalar_r/subtalar_angle_r/value	/jointset/ground_pelvis/pelvis_tilt/speed	/jointset/ground_pelvis/pelvis_tx/speed	/jointset/ground_pelvis/pelvis_ty/speed	/jointset/hip_r/hip_flexion_r/speed	/jointset/hip_r/hip_adduction_r/speed	/jointset/hip_r/hip_rotation_r/speed	/jointset/back/lumbar_extension/speed	/jointset/patellofemoral_r/patellar_flexion_r/speed	/jointset/knee_r/knee_flexion_r/speed	/jointset/knee_r/knee_adduction_r/speed	/jointset/knee_r/knee_rotation_r/speed	/jointset/ankle_r/ankle_angle_r/speed	/jointset/subtalar_r/subtalar_angle_r/speed	/forceset/tau_hip_flexion_r	/forceset/tau_hip_adduction_r	/forceset/tau_hip_rotation_r	/forceset/tau_knee_flexion_r	/forceset/tau_ankle_angle_r	/forceset/tau_subtalar_angle_r	/forceset/tau_lumbar_extension	lambda_cid13_p0	lambda_cid14_p0	lambda_cid14_p1	lambda_cid14_p2	lambda_cid14_p3	lambda_cid14_p4	lambda_cid14_p5	/jointset/ground_pelvis/pelvis_tilt/accel	/jointset/ground_pelvis/pelvis_tx/accel	/jointset/ground_pelvis/pelvis_ty/accel	/jointset/hip_r/hip_flexion_r/accel	/jointset/hip_r/hip_adduction_r/accel	/jointset/hip_r/hip_rotation_r/accel	/jointset/back/lumbar_extension/accel	/jointset/patellofemoral_r/patellar_flexion_r/accel	/jointset/knee_r/knee_flexion_r/accel	/jointset/knee_r/knee_adduction_r/accel	/jointset/knee_r/knee_rotation_r/accel	/jointset/ankle_r/ankle_angle_r/accel	/jointset/subtalar_r/subtalar_angle_r/accel	gamma_cid13_p0	gamma_cid14_p0	gamma_cid14_p1	gamma_cid14_p2	gamma_cid14_p3	gamma_cid14_p4	gamma_cid14_p5
1	-0.5870022002562332	-0.08395182660661023	0.7765897593344275	1.374146368314548	-0.1452546363252759	-0.2248359008518183	-0.7853966357613555	0.6766531221124326	0.67665312211243	-0.1743579476977894	0.1741050369064454	0.001543221896487458	0.1358349879459995	0.07640218823190867	0.003162743642606951	0.01446773495009953	-0.09807940259375361	0.01027599608766401	-0.01255225513932471	-0.0001017531520310713	-0.02918797211962154	-0.02918797211962171	-0.01874186478568028	-4.797166036140963e-05	-0.00179872569504851	0.01168406342478672	-0.5014335546972524	0.0364242608207291	-0.02431178736529179	-0.06360085912035494	0.009133619255540038	0.02041061785220751	0.4275627260974563	-23.62494199416154	-44.10016665806877	2.508154406241385	-1.53759896686835	2.573502099447319	-733.5505942756856	59.51404853591304	3.163470919118979	0.4658148315779822	0.9213099738619386	-5.212696141270805	-0.1622981108314541	0.02469931698592418	-0.03612724606664522	-1.957860954571812	-1.957860954571843	0.9678273657302359	0.03479706804454671	-0.1107239301284559	-0.2291393103495412	8.367280276715904e-09	1.988090204649278e-08	1.270065166410845e-08	3.086182603659376e-08	-5.691093290576401e-09	-1.145510056571923e-08	2.104022283374241e-08
1.01	-0.586081657801287	-0.08389704638073781	0.7767802101286839	1.372906982087309	-0.145160383965995	-0.2249578636542663	-0.7853979540050058	0.6762642090114297	0.676264209011424	-0.1744950482418616	0.1741047171230565	0.001519505404928251	0.1359398085497235	0.1076343851631564	0.007788220891358421	0.02360839059611733	-0.1497093457515735	0.008575385363447936	-0.01184102247634677	-0.0001192715311448963	-0.04858238336386598	-0.04858238336386494	-0.008683867975897919	-1.57469867243769e-05	-0.002948106767758636	0.009279904179945177	-0.5002721604634199	0.03623594508002734	-0.02423504333699506	-0.06408417398699581	0.009740371260912907	0.02041467678097533	0.4268220772835301	-23.64338790917332	-43.86855881994099	2.524528127357342	-1.51057732850065	2.517134261720568	-732.9239889199628	59.54671571452995	3.092309312511933	0.4601506143382705	0.9083362056933451	-5.124866167622375	-0.1737999113497727	0.09423165591028902	0.02182947201037889	-1.928392787916842	-1.928392787916625	1.023947708975244	-0.01252186059385603	-0.1175729223267705	-0.2460689470548742	6.449967959241136e-09	1.893688442621546e-08	2.153973839428732e-08	4.375713179380318e-08	-7.289550146045952e-09	-1.079925525638886e-08	2.259989774261421e-08
1.02	-0.5848509503305527	-0.08379616409381493	0.7770616460485448	1.371153951875568	-0.1450831091855812	-0.225072734847096	-0.7853981633974483	0.6756817194822715	0.6756817194822672	-0.1745317364437503	0.1741047281808789	0.001484189557345176	0.1360205846178985	0.1384351913897728	0.01238315585269904	0.03266476007097896	-0.2008081994927869	0.006880480313907452	-0.01113393321510577	0.0001189543235123513	-0.06790325775075422	-0.06790325775075169	0.001340603648804782	1.819658222732136e-05	-0.004118596899847993	0.006875156314966855	-0.4991107662296159	0.03604762933932411	-0.02415829930870854	-0.06456748885363646	0.01034712326629048	0.02041873570974315	0.4260814284695732	-23.66932702721862	-43.64503463465932	2.545333771402718	-1.490941573736839	2.446750066089174	-732.4342697744731	59.63617587356506	3.077192778192674	0.4597063740958243	0.9044527396307093	-5.106478257949527	-0.1611569758963374	0.02387063663853124	0.01502160068810082	-1.94315358310057	-1.943153583100551	0.9611223287143024	0.03514084710748202	-0.1149457420042862	-0.2292570343768934	4.631125965305531e-09	1.955137130492284e-08	2.942371736986633e-08	5.905073896505923e-08	-1.196471007872214e-08	-9.455587143308553e-09	2.384541627368636e-08
1.03	-0.5833141173794969	-0.08364933759305855	0.7774331458005275	1.368892612007988	-0.145022827507849	-0.2251806677465966	-0.7853939715172894	0.6749072038556203	0.6749072038556155	-0.174468551170768	0.1741052027828013	0.001437640460436573	0.1360774225846381	0.1688848855112347	0.01699182345371004	0.0416129516393037	-0.2513662508122663	0.005168861113381253	-0.01045905767929282	0.0008409881605548205	-0.08690383748011124	-0.08690383748011005	0.01127444083875092	8.460216626516338e-05	-0.005136700525507125	0.004502797268580112	-0.4985941449092954	0.03588323791018732	-0.0241029761225865	-0.06458379130840029	0.01084627305361294	0.02043585960623005	0.4261117566981863	-23.70266121699566	-43.45065505256518	2.572617338270435	-1.479085313260333	2.122974833955916	-732.0640615407609	59.67101522792073	3.021882729758997	0.4628954636236922	0.8866649497085956	-5.01643818333544	-0.1772011238411993	0.08834034808961266	0.1188698328974402	-1.864106204599991	-1.864106204600229	1.006222636896773	-0.006415328109863699	-0.08706286275916048	-0.2396568324632741	2.813288770589715e-09	2.018176129076272e-08	3.729795034794941e-08	7.436881859972391e-08	-1.66712649407576e-08	-8.104900430189973e-09	2.508772912743401e-08
1.04	-0.5814741824870966	-0.08345613471418807	0.7778934599850484	1.366128497704334	-0.1449798693684629	-0.2252820430235325	-0.7853789388735498	0.6739455632243266	0.6739455632243235	-0.1743066858813241	0.1741065802921302	0.001382546289289249	0.1361108506623754	0.1990555796581319	0.02165843147551513	0.05042764657863187	-0.3013630867072825	0.003415772644435856	-0.009822408702001854	0.002286044304998669	-0.1053282586793363	-0.1053282586793369	0.02107660693917625	0.0001987780638314128	-0.00582761174766287	0.002193178514445107	-0.4980775235889964	0.03571884648105127	-0.02404765293647584	-0.06460009376316235	0.01134542284094085	0.02045298350271979	0.426142084926776	-23.74317807224082	-43.26406034716233	2.604298956275069	-1.474511073247899	1.783488547371457	-731.8272141939548	59.76149749364495	3.02139278327972	0.4712944582546542	0.8777534138313987	-4.994235173056913	-0.1694508295801795	0.01622532493413336	0.1596260621682772	-1.827921877074184	-1.827921877074248	0.9347881108101469	0.04469490981316638	-0.04950726130359609	-0.2167089759265449	9.662150344514698e-10	1.681680045774005e-08	4.618699787922861e-08	7.947610650400676e-08	-1.391603366173831e-08	-1.368914197144542e-08	2.582041104700001e-08
1.05	-0.5793344513193882	-0.08321593833598734	0.7784414542444258	1.362866806041258	-0.1449546774584738	-0.225377120844682	-0.7853449911435841	0.6728011826608352	0.6728011826608323	-0.1740468712216353	0.1741092353870666	0.001321583316757151	0.1361212599359244	0.2287925128979711	0.02639453863291631	0.05916896944750077	-0.3509233488415046	0.001612922253415467	-0.009185304176486013	0.004709604467933293	-0.1235891852930986	-0.1235891852930972	0.03092407031574491	0.0003280515413164885	-0.00636993118256632	-0.000124480702790551	-0.498105674037837	0.03551118539632797	-0.0238484065859951	-0.06490775890537299	0.01222122541370805	0.02026256035120276	0.4268624696708511	-23.7906932536776	-43.02562275582704	2.557640471391147	-1.460554222362576	1.378828087026005	-732.4334496805059	59.84453915251712	2.935124103736754	0.4768208594045202	0.8719823894031881	-4.929135896521364	-0.187138841398907	0.08863541705194057	0.314636410249961	-1.831377549645768	-1.831377549645451	1.015400822865944	-0.00357119460896974	-0.05733702247815983	-0.2412492796201191	-8.817723436062263e-10	1.332698491162795e-08	5.510775836529518e-08	8.426430716671524e-08	-1.09276215658111e-08	-1.949010002065001e-08	2.653716699987283e-08
1.06	-0.5769002947173993	-0.08292797048322825	0.7790767938656896	1.359111068924256	-0.1449478013919008	-0.2254655911404388	-0.7852806247286095	0.6714729529319833	0.6714729529319797	-0.1736874468538178	0.1741130602645113	0.001255048602297467	0.1361081016403017	0.2579406665138355	0.03121272638718336	0.06789671895590474	-0.4001721774923893	-0.0002473960390440931	-0.008500903623304254	0.008369781306622135	-0.1420980917516013	-0.1420980917515977	0.04099854856374158	0.0004327345657958921	-0.006941960133247008	-0.00252033531994789	-0.4981338244866894	0.03530352431160593	-0.02364916023552586	-0.06521542404758478	0.01309702798647791	0.02007213719968826	0.4275828544149135	-23.84516159189161	-42.79492899424343	2.515420239922422	-1.45392350573631	0.9565050853023946	-733.1737028030502	59.98317192171291	2.903636858484747	0.4877105776278357	0.8750387417384141	-4.931948476389422	-0.1809444098680181	0.02568453046731757	0.4069493973190989	-1.877517846022277	-1.877517846022275	0.9801910850957564	0.03977681921203524	-0.05544916445903642	-0.2323480559108839	-2.742295682568744e-09	1.356320750726189e-08	6.36911993741936e-08	9.835928216696607e-08	-1.500856204094803e-08	-1.903851267123126e-08	2.805334683197925e-08
1.07	-0.574177115245558	-0.08259135006982707	0.7797993028219941	1.354864173611576	-0.1449598492328037	-0.2255470409102465	-0.7851738758241615	0.669958954855108	0.6699589548551045	-0.1732263067439143	0.1741178555916839	0.001182990167384397	0.1360706728027629	0.286642629501451	0.03613099574852834	0.07659858982360394	-0.4491752294081452	-0.002174428504105363	-0.007788896093746433	0.01314959773294901	-0.1606885223080604	-0.1606885223080603	0.05124921656929583	0.0005278732734486178	-0.007440779643685188	-0.004969975032694653	-0.4978724753138114	0.03506839105108034	-0.02341885586549102	-0.06532757861002293	0.01381928235609505	0.01986671377501804	0.4281364599159345	-23.90658478825891	-42.58722650437107	2.469099892691064	-1.453995016082584	0.527920084856044	-733.5170361416447	60.05252885041337	2.845587047623525	0.4968270775874701	0.8667852473005283	-4.879734718844117	-0.2003986735579689	0.09398841269812223	0.5389374877333978	-1.847854516137734	-1.84785451613827	1.050484119989564	-0.00536768572409353	-0.04275770747937521	-0.2519284379594265	-4.603485827962371e-09	1.399762362107384e-08	7.225669785771073e-08	1.129492983553841e-07	-1.946553190816288e-08	-1.825434311975803e-08	2.961204921085343e-08
1.08	-0.571168493938095	-0.08220495857037251	0.7806086352845786	1.350128197545804	-0.1449915306001021	-0.2256213646950614	-0.7850142408109604	0.6682594427015323	0.6682594427015291	-0.172662064061613	0.1741236522894786	0.001106811664738582	0.1360086162662963	0.3150290336380071	0.04116694359786208	0.08526142021188643	-0.4979883281109197	-0.004174101318478682	-0.007075706624263866	0.01894700305703084	-0.1792009070917197	-0.1792009070917232	0.06161906304302214	0.0006330086904620183	-0.007765973679849986	-0.007445875105555709	-0.4976111261409389	0.03483325779055355	-0.02318855149545857	-0.06543973317246105	0.01454153672571283	0.0196612903503467	0.42869006541695	-23.97488318445527	-42.38729548562122	2.427334863839438	-1.461550573795102	0.08049503069272826	-733.9956909025486	60.17813244463561	2.840525088272848	0.5112462752255925	0.8672306458550764	-4.893957833793135	-0.1954724797304319	0.02592091845226685	0.6104671768700787	-1.861908691462318	-1.861908691462314	1.004026778730177	0.04177616108417354	-0.02072406960435506	-0.2376001279337455	-6.556700018704762e-09	1.239659253319446e-08	7.99302077879808e-08	1.228518136576164e-07	-2.051307266663631e-08	-1.757633154750848e-08	3.045160578186328e-08
